<?xml version="1.0" encoding="UTF-8" standalone="no"?>
<svg
   xmlns:dc="http://purl.org/dc/elements/1.1/"
   xmlns:cc="http://creativecommons.org/ns#"
   xmlns:rdf="http://www.w3.org/1999/02/22-rdf-syntax-ns#"
   xmlns:svg="http://www.w3.org/2000/svg"
   xmlns="http://www.w3.org/2000/svg"
   xmlns:sodipodi="http://sodipodi.sourceforge.net/DTD/sodipodi-0.dtd"
   xmlns:inkscape="http://www.inkscape.org/namespaces/inkscape"
   version="1.0"
   x="0px"
   y="0px"
   width="96px"
   height="96px"
   viewBox="0 0 96 96"
   enable-background="new 0 0 96 96"
   xml:space="preserve"
   id="svg2878"
   inkscape:version="0.47 r22583"
   sodipodi:docname="notification_icon-v11.svg"><metadata
   id="metadata2891"><rdf:RDF><cc:Work
       rdf:about=""><dc:format>image/svg+xml</dc:format><dc:type
         rdf:resource="http://purl.org/dc/dcmitype/StillImage" /><dc:title></dc:title></cc:Work></rdf:RDF></metadata><defs
   id="defs2889"><inkscape:perspective
     sodipodi:type="inkscape:persp3d"
     inkscape:vp_x="0 : 48 : 1"
     inkscape:vp_y="0 : 1000 : 0"
     inkscape:vp_z="96 : 48 : 1"
     inkscape:persp3d-origin="48 : 32 : 1"
     id="perspective2893" /><inkscape:perspective
     id="perspective3007"
     inkscape:persp3d-origin="48 : 32 : 1"
     inkscape:vp_z="96 : 48 : 1"
     inkscape:vp_y="0 : 1000 : 0"
     inkscape:vp_x="0 : 48 : 1"
     sodipodi:type="inkscape:persp3d" /><filter
     inkscape:collect="always"
     id="filter3906"
     x="-0.097163178"
     width="1.1943264"
     y="-0.1104662"
     height="1.2209324"><feGaussianBlur
       inkscape:collect="always"
       stdDeviation="2.8057724"
       id="feGaussianBlur3908" /></filter><filter
     inkscape:collect="always"
     id="filter3910"><feGaussianBlur
       inkscape:collect="always"
       stdDeviation="2.0659825"
       id="feGaussianBlur3912" /></filter></defs><sodipodi:namedview
   pagecolor="#ffffff"
   bordercolor="#666666"
   borderopacity="1"
   objecttolerance="10"
   gridtolerance="10"
   guidetolerance="10"
   inkscape:pageopacity="0"
   inkscape:pageshadow="2"
   inkscape:window-width="1920"
   inkscape:window-height="1127"
   id="namedview2887"
   showgrid="false"
   inkscape:zoom="9.3333333"
   inkscape:cx="48"
   inkscape:cy="48"
   inkscape:window-x="1920"
   inkscape:window-y="24"
   inkscape:window-maximized="1"
   inkscape:current-layer="svg2878" />

<g
   transform="matrix(0.85189493,0,0,0.85189493,-5.0530875,26.036924)"
   id="g3826">
	<g
   style="display:inline;fill:#ffffff;fill-opacity:1"
   id="g3828"
   display="inline">
		<g
   style="fill:#ffffff;fill-opacity:1;stroke:none"
   id="g3830">
			<path
   style="fill:#ffffff;fill-opacity:1;stroke:none"
   id="path3832"
   d="m 10.627,31.826 7.371,8.988 c 8.176,-6.662 18.622,-10.67 30.001,-10.67 11.37,0 21.815,4.008 30.003,10.68 l 7.371,-8.998 C 63.678,14.148 32.32,14.148 10.627,31.826 z m 27.759,33.869 9.613,11.736 9.615,-11.727 c -2.588,-2.309 -5.952,-3.709 -9.615,-3.709 -3.672,0.001 -7.025,1.401 -9.613,3.7 z M 28.873,54.1 l 7.773,9.484 c 3.065,-2.719 7.018,-4.373 11.353,-4.373 4.325,0 8.288,1.654 11.353,4.373 L 67.127,54.1 C 61.902,49.85 55.25,47.289 47.999,47.289 c -7.25,0 -13.913,2.561 -19.126,6.811 z m -9.138,-11.147 7.372,8.988 c 5.699,-4.643 12.969,-7.436 20.892,-7.436 7.913,0 15.192,2.793 20.892,7.436 l 7.363,-8.988 C 68.545,36.676 58.707,32.9 47.999,32.9 37.282,32.9 27.443,36.676 19.735,42.953 z" />
		</g>
	</g>
</g><g
   style="fill:#ffffff;fill-opacity:1;stroke:none"
   transform="matrix(0.62727826,0,0,0.62727826,40.154235,-6.9902288)"
   id="g3834">
	<path
   style="fill:#ffffff;fill-opacity:1;stroke:none;display:inline"
   display="inline"
   d="M 81.937,73.199 51.046,19.7 c -1.673,-2.906 -4.416,-2.906 -6.093,0 L 14.064,73.199 c -1.678,2.905 -0.307,5.28 3.045,5.28 h 61.785 c 3.35,0 4.717,-2.375 3.043,-5.28 z M 52.264,69.994 H 43.74 v -8.249 h 8.523 v 8.249 z m 0,-13.471 H 43.74 V 36.999 h 8.523 v 19.524 z"
   id="path3836" />
</g></svg>
